<svg xmlns="http://www.w3.org/2000/svg" viewBox="0 0 699.2 448.37"><defs><style>.cls-1{fill:#b01917;}.cls-2,.cls-3{fill:#1d1d1b;}.cls-3{font-size:40.24px;font-family:Primus-Light, Primus;font-weight:300;}.cls-4{letter-spacing:-0.02em;}.cls-5{letter-spacing:-0.01em;}.cls-6{letter-spacing:0em;}.cls-7{letter-spacing:-0.02em;}.cls-8{letter-spacing:0em;}</style></defs><g id="Capa_2" data-name="Capa 2"><g id="Capa_1-2" data-name="Capa 1"><path class="cls-1" d="M115.68,15.8c-14,0-28-.06-41.95,0-5.78,0-10.88-1.29-10.81-8.07C63,1.38,68.15.3,73.38.3,101.66.27,130-.46,158.2.47c33.94,1.11,57.36,26.23,57.72,60.32.18,16.41.08,32.83.06,49.25,0,30.91-23.17,55.45-54,56.47-18.83.62-37.71.63-56.54,0-28.21-.93-50-24.4-49.79-52.7s21.67-49.76,50.62-50.24c21.88-.37,43.78,0,65.67-.07,5.76,0,10.92,1,10.65,8-.25,6.85-5.55,7.62-11.2,7.61-21.28-.06-42.57-.14-63.85.15-21,.29-36.11,14.51-36.66,34-.58,20.43,14.35,36.81,35.38,37.57,18.22.66,36.5.73,54.71,0,23.46-1,39.51-18.23,39.65-41.59q.15-24.62-.19-49.25C200.08,34.74,183,17,157.63,16c-14-.56-28-.1-41.95-.1Z"/><path class="cls-2" d="M448.76,163.2a8,8,0,0,1-5.85,2.46,7.47,7.47,0,0,1-5.7-2.46,8.25,8.25,0,0,1-2.31-5.85v-109A30.74,30.74,0,0,0,425.66,26a31.44,31.44,0,0,0-22.48-9.7H384.71A31.46,31.46,0,0,0,362.23,26,30.74,30.74,0,0,0,353,48.35v109a8.4,8.4,0,0,1-8.31,8.31,7.47,7.47,0,0,1-5.7-2.46,8.25,8.25,0,0,1-2.31-5.85v-109A30.74,30.74,0,0,0,327.43,26,31.43,31.43,0,0,0,305,16.32H286.48A31.46,31.46,0,0,0,264,26a30.73,30.73,0,0,0-9.23,22.33v109a8.22,8.22,0,0,1-2.32,5.85,7.44,7.44,0,0,1-5.69,2.46,8.42,8.42,0,0,1-8.32-8.31v-109a46.58,46.58,0,0,1,14.17-34.18A46.19,46.19,0,0,1,286.48,0h18.17a43.62,43.62,0,0,1,19.09,4,43.73,43.73,0,0,1,13.86,8.93l7.08,6.78,7.39-6.78A43.58,43.58,0,0,1,365.92,4a42.93,42.93,0,0,1,18.79-4h18.17q19.39,0,34.18,14.17,14.15,14.78,14.16,34.18v109A8,8,0,0,1,448.76,163.2Z"/><path class="cls-1" d="M487.6,164.5a8,8,0,0,1-5.9,2.48A7.56,7.56,0,0,1,476,164.5a8.32,8.32,0,0,1-2.32-5.9V8.07A7.94,7.94,0,0,1,481.7,0a8.35,8.35,0,0,1,5.9,2.33,7.55,7.55,0,0,1,2.49,5.74V158.6A8,8,0,0,1,487.6,164.5Z"/><path class="cls-2" d="M597.41,164.34H520.13a8.25,8.25,0,0,1,0-16.49h77.28a28.86,28.86,0,0,0,21.23-8.71,29.31,29.31,0,0,0-.15-41.85,29.07,29.07,0,0,0-21.08-8.7H554.65a43.21,43.21,0,0,1-31.47-13,42.43,42.43,0,0,1-13.13-31.32A42.43,42.43,0,0,1,523.18,13,43.21,43.21,0,0,1,554.65,0h71.78a7.65,7.65,0,0,1,5.65,2.29,7.68,7.68,0,0,1,2.29,5.65,8.18,8.18,0,0,1-2.29,5.81,7.42,7.42,0,0,1-5.65,2.44H554.65a27.55,27.55,0,0,0-20,8.25,26.83,26.83,0,0,0-8.4,19.85,26.82,26.82,0,0,0,8.4,19.86,27.55,27.55,0,0,0,20,8.25h42.76A44.5,44.5,0,0,1,630.1,85.84q13.44,12.82,13.44,32.38a46.4,46.4,0,0,1-46.13,46.12Z"/><text class="cls-3" transform="translate(0 219.54)">Ad<tspan class="cls-4" x="50.78" y="0">v</tspan><tspan x="74.2" y="0">an</tspan><tspan class="cls-5" x="118.06" y="0">c</tspan><tspan x="138.58" y="0">ed M</tspan><tspan class="cls-5" x="229.23" y="0">et</tspan><tspan class="cls-6" x="265" y="0">ad</tspan><tspan class="cls-5" x="309.3" y="0">at</tspan><tspan x="345.03" y="0">a I</tspan><tspan class="cls-5" x="387.44" y="0">nt</tspan><tspan x="423.17" y="0">ellige</tspan><tspan class="cls-7" x="511.82" y="0">n</tspan><tspan class="cls-8" x="533.14" y="0">t Sys</tspan><tspan class="cls-5" x="630.6" y="0">t</tspan><tspan x="645" y="0">em</tspan></text><polygon class="cls-1" points="627.53 369.66 651.97 369.64 651.94 347.8 627.53 369.66"/><path class="cls-1" d="M48,347.16l.3,24.63L76,371.52l-.31-24.63Zm6,19.45-.18-14.38L70,352.08l.18,14.37Z"/><path class="cls-1" d="M686.32,237.42a8,8,0,0,0-7.86,5.4H20.73a8,8,0,0,0-7.86-5.4c-4.49,0-8.14,3.25-8.14,7.24s3.65,7.25,8.14,7.25a8,8,0,0,0,7.86-5.41H253.91l-27.52,25.05-168.9-.64v0L30.4,294.82a8.94,8.94,0,0,0-3.92-.92c-4.49,0-8.16,3.22-8.18,7.21s3.62,7.26,8.11,7.28,8.15-3.22,8.17-7.21a6.56,6.56,0,0,0-1.21-3.81l25.85-22.78,163.14.63L207.2,289l-66.83.65,0,3.68h.16l.4,30.82-62.72.61A7.12,7.12,0,0,0,76,321.11a8.88,8.88,0,0,0-11.51.12,6.7,6.7,0,0,0,.13,10.24,8.86,8.86,0,0,0,11.5-.11,7.13,7.13,0,0,0,2-2.91l7.38-.07L85.5,337l-49,.48v0h0l.28,38.64A8.37,8.37,0,0,0,33.25,378a6.71,6.71,0,0,0,.12,10.25,8.88,8.88,0,0,0,11.51-.12,6.7,6.7,0,0,0-.13-10.24A8.47,8.47,0,0,0,40.86,376l-.26-34.89,44.93-.44L85.71,365a8.32,8.32,0,0,0-3.48,1.87,6.71,6.71,0,0,0,.12,10.25A8.88,8.88,0,0,0,93.86,377a6.7,6.7,0,0,0-.13-10.24,8.47,8.47,0,0,0-3.89-1.88l-.18-24.19,14.22-.14,0,3.84,12.52-.1-.11-11.14-12.51.1,0,3.63L89.63,337l-.06-8.64,55.53-.54v-.05h0l-.44-34.45,26.57-.26.27,36.72a5.06,5.06,0,0,0-1.55.91,4.08,4.08,0,0,0-.05,6.25,5.41,5.41,0,0,0,7,.05,4.09,4.09,0,0,0,0-6.25,5,5,0,0,0-1.34-.84L175.4,293l33.52-.33h0l0,0,32-29.13v45.25L195.76,347l0,0h0v45.51h-4.63v11.14h12.51V392.52H199V348.23L241,312.8v18.56h-4.63v11.15h12.52V331.36h-4.63V310.05l74.94-63.32v115H259.73l26.83-23.67a8.84,8.84,0,0,0,3.81.85c4.49,0,8.14-3.25,8.14-7.24s-3.65-7.25-8.14-7.25-8.14,3.25-8.14,7.25a6.65,6.65,0,0,0,1.29,3.89l-29.66,26.17H231.25v-3.73H218.74v11.14h12.51v-3.73h87.9v16.27a7.46,7.46,0,0,0-6.07,7c0,4,3.65,7.24,8.14,7.24s8.14-3.25,8.14-7.24a7.46,7.46,0,0,0-6.08-7V246.5h8.43V401.15l-21.87,19.11-3.16-2.93-9,7.74,8.68,8,9-7.73-3.26-3,19.61-17.14V434c-3.71.68-6.51,3.6-6.51,7.1,0,4,3.65,7.25,8.14,7.25s8.13-3.25,8.13-7.25c0-3.5-2.8-6.42-6.51-7.1V402.36l12.1-10.57h0V246.5h8V402.18h0l31.78,27.76-.08,8.56,12.51.09.11-11.14-10.84-.08L358.32,401V246.5h8.43v84.21a6.77,6.77,0,0,0-4.37,6.12c0,3.74,3.41,6.78,7.62,6.78a8.37,8.37,0,0,0,3.86-.94l49.74,36a6.62,6.62,0,0,0-1,3.42c0,4,3.65,7.24,8.14,7.24s8.13-3.25,8.13-7.24-3.65-7.25-8.13-7.25a8.77,8.77,0,0,0-5.1,1.61L387.2,348.59l17.53-21,3.65,2.5L416,321.3l-9.92-6.8-7.63,8.83,3.68,2.53-17.48,20.9-8.41-6.08a6.26,6.26,0,0,0,1.35-3.85c0-3.74-3.41-6.77-7.61-6.77V246.5h9.82l76.12,63.56v22.08h-4.63v11.14h12.51V332.14h-4.63V312.77l31.1,26v45.44c-3.71.68-6.51,3.6-6.51,7.1,0,4,3.65,7.24,8.14,7.24s8.14-3.25,8.14-7.24c0-3.5-2.81-6.43-6.52-7.1V337.54l0,0,0,0v-.09h-.11L459.19,308.8V264.34l32,29.12,0,0h0l33.51.33-.27,36.88a5,5,0,0,0-1.34.84,4.09,4.09,0,0,0,0,6.25,5.41,5.41,0,0,0,7-.05,4.08,4.08,0,0,0-.05-6.25,5.06,5.06,0,0,0-1.55-.91l.27-36.72,26.57.26L555,328.53h0v0l55.52.55-.06,8.64-14.21-.14,0-3.62-12.52-.1-.1,11.14,12.51.1,0-3.84,14.21.14-.17,24.19a8.46,8.46,0,0,0-3.9,1.88,6.7,6.7,0,0,0-.13,10.24,8.88,8.88,0,0,0,11.51.11,6.7,6.7,0,0,0,.12-10.24,8.28,8.28,0,0,0-3.47-1.87l.17-24.27,44.93.44-.25,34.89a8.5,8.5,0,0,0-3.9,1.88,6.7,6.7,0,0,0-.13,10.24,8.88,8.88,0,0,0,11.51.12,6.71,6.71,0,0,0,.13-10.25,8.43,8.43,0,0,0-3.48-1.87l.28-38.63h0v0l-49-.48.06-8.64,7.39.07a7.1,7.1,0,0,0,1.94,2.91,8.89,8.89,0,0,0,11.51.11,6.7,6.7,0,0,0,.12-10.24,8.88,8.88,0,0,0-11.51-.12,7,7,0,0,0-2.25,3.66l-62.73-.61.4-30.82h.16l0-3.68-66.84-.65L477.78,276l163.14-.62,25.85,22.78a6.56,6.56,0,0,0-1.21,3.81c0,4,3.69,7.23,8.18,7.21s8.12-3.28,8.1-7.28-3.69-7.22-8.17-7.21a8.87,8.87,0,0,0-3.92.92l-27.1-23.88v0l-168.9.64L445.37,246.5H678.46a8,8,0,0,0,7.86,5.41c4.49,0,8.14-3.25,8.14-7.24S690.81,237.42,686.32,237.42ZM26.42,305.14a4,4,0,1,1,0-8,4,4,0,1,1,0,8ZM73.5,329.09a4.89,4.89,0,0,1-6.34.06,3.7,3.7,0,0,1-.07-5.65,4.88,4.88,0,0,1,6.34-.06A3.7,3.7,0,0,1,73.5,329.09ZM42.27,385.88a4.89,4.89,0,0,1-6.34.07,3.7,3.7,0,0,1-.07-5.65,4.87,4.87,0,0,1,6.34-.06A3.69,3.69,0,0,1,42.27,385.88Zm49-11.18a4.89,4.89,0,0,1-6.34.06,3.7,3.7,0,0,1-.07-5.65,4.89,4.89,0,0,1,6.34-.06A3.7,3.7,0,0,1,91.25,374.7Zm199.12-47a4,4,0,1,1-4.48,4A4.27,4.27,0,0,1,290.37,327.72Zm47.46,113.4a4.52,4.52,0,1,1-4.49-4A4.28,4.28,0,0,1,337.83,441.12Zm97.43-59a4.51,4.51,0,1,1-4.48-4A4.26,4.26,0,0,1,435.26,382.08Zm61.14,9.2a4.52,4.52,0,1,1-4.7-4h.44A4.21,4.21,0,0,1,496.4,391.28Zm118.83-15.74a4.89,4.89,0,0,1-6.34-.06,3.7,3.7,0,0,1,.07-5.65,4.89,4.89,0,0,1,6.34.06A3.7,3.7,0,0,1,615.23,375.54Zm49,11.18a4.89,4.89,0,0,1-6.35-.06,3.69,3.69,0,0,1,.07-5.64,4.88,4.88,0,0,1,6.35.06A3.69,3.69,0,0,1,664.22,386.72Zm-37.51-62.5a4.88,4.88,0,0,1,6.34.06,3.7,3.7,0,0,1-.07,5.65,4.89,4.89,0,0,1-6.34-.06A3.7,3.7,0,0,1,626.71,324.22Zm47-26.29a4,4,0,1,1-4.47,4A4.28,4.28,0,0,1,673.68,297.93ZM12.87,248.66a4,4,0,1,1,0-8,4,4,0,1,1,0,8ZM244.21,260.6l15.49-14.1h55l-70.49,59.56Zm81.5,128.13a4.52,4.52,0,1,1-4.5-4h0A4.26,4.26,0,0,1,325.71,388.73Zm18.1,1.85L335,398.31V246.5h8.85Zm112.13-129.2v44.71L384.57,246.5h55Zm230.38-12.72a4,4,0,1,1,4.49-4A4.26,4.26,0,0,1,686.32,248.66Z"/></g></g></svg>