<svg xmlns="http://www.w3.org/2000/svg" viewBox="0 0 24 24" stroke-width="1.5" width="24" height="24" color="#000000"><defs><style>.cls-6375f1aeb67f094e4896c9dd-1,.cls-6375f1aeb67f094e4896c9dd-2{fill:none;stroke:currentColor;stroke-miterlimit:10;}.cls-6375f1aeb67f094e4896c9dd-1{stroke-linecap:square;}</style></defs><g id="balance"><path class="cls-6375f1aeb67f094e4896c9dd-1" d="M1.46,12.94H8.17a0,0,0,0,1,0,0v.73a3.11,3.11,0,0,1-3.11,3.11h-.5a3.11,3.11,0,0,1-3.11-3.11v-.73A0,0,0,0,1,1.46,12.94Z"></path><path class="cls-6375f1aeb67f094e4896c9dd-2" d="M.5,5.27H5.92a3.18,3.18,0,0,0,2.29-1h0a3.24,3.24,0,0,1,2.29-1h3a3.27,3.27,0,0,1,2.31,1h0a3.27,3.27,0,0,0,2.32,1H23.5"></path><line class="cls-6375f1aeb67f094e4896c9dd-2" x1="12" y1="0.48" x2="12" y2="22.52"></line><line class="cls-6375f1aeb67f094e4896c9dd-2" x1="17.75" y1="22.52" x2="6.25" y2="22.52"></line><polygon class="cls-6375f1aeb67f094e4896c9dd-1" points="5.29 5.27 4.33 5.27 1.46 11.98 1.46 12.94 8.17 12.94 8.17 11.98 5.29 5.27"></polygon><path class="cls-6375f1aeb67f094e4896c9dd-1" d="M15.83,12.94h6.71a0,0,0,0,1,0,0v.73a3.11,3.11,0,0,1-3.11,3.11h-.5a3.11,3.11,0,0,1-3.11-3.11v-.73a0,0,0,0,1,0,0Z"></path><polygon class="cls-6375f1aeb67f094e4896c9dd-1" points="19.67 5.27 18.71 5.27 15.83 11.98 15.83 12.94 22.54 12.94 22.54 11.98 19.67 5.27"></polygon></g></svg>